<svg width="1024" height="1024" viewBox="0 0 1024 1024" fill="none" xmlns="http://www.w3.org/2000/svg">
<path d="M1013.13 53.5103H10.1675V973.506H1013.13V53.5103Z" stroke="black" stroke-width="2"/>
<path d="M150.11 53.5103H10.1675V156.17H150.11V53.5103Z" stroke="black" stroke-width="2"/>
<path d="M239.379 53.5103H150.11V188.989H239.379V53.5103Z" stroke="black" stroke-width="2"/>
<path d="M337.575 53.5103H239.379V188.989H337.575V53.5103Z" stroke="black" stroke-width="2"/>
<path d="M419.492 53.5103H337.574V108.384H419.492V53.5103Z" stroke="black" stroke-width="2"/>
<path d="M419.492 108.384H357.004V148.293H419.492V108.384Z" stroke="black" stroke-width="2"/>
<path d="M419.492 148.293H357.004V188.989H419.492V148.293Z" stroke="black" stroke-width="2"/>
<path d="M513.487 53.5103H419.492V188.989H513.487V53.5103Z" stroke="black" stroke-width="2"/>
<path d="M693.338 53.5103H595.667V188.989H693.338V53.5103Z" stroke="black" stroke-width="2"/>
<path d="M775.255 53.5103H693.338V188.989H775.255V53.5103Z" stroke="black" stroke-width="2"/>
<path d="M874.501 53.5103V158.533H846.67V188.989H775.255V53.5103H874.501Z" stroke="black" stroke-width="2"/>
<path d="M1013.13 53.5103H874.501V188.464H1013.13V53.5103Z" stroke="black" stroke-width="2"/>
<path d="M1013.13 188.464H874.501V285.61H1013.13V188.464Z" stroke="black" stroke-width="2"/>
<path d="M1013.13 285.61H874.501V370.153H1013.13V285.61Z" stroke="black" stroke-width="2"/>
<path d="M1013.13 370.153H874.501V467.298H1013.13V370.153Z" stroke="black" stroke-width="2"/>
<path d="M1013.13 467.298H874.501V551.841H1013.13V467.298Z" stroke="black" stroke-width="2"/>
<path d="M1013.13 551.841H874.501V647.411H1013.13V551.841Z" stroke="black" stroke-width="2"/>
<path d="M1013.13 647.411H874.501V740.356H1013.13V647.411Z" stroke="black" stroke-width="2"/>
<path d="M1013.13 830.15H873.976V973.506H1013.13V830.15Z" stroke="black" stroke-width="2"/>
<path d="M873.976 830.15H783.132V973.506H873.976V830.15Z" stroke="black" stroke-width="2"/>
<path d="M783.132 830.15H690.712V973.506H783.132V830.15Z" stroke="black" stroke-width="2"/>
<path d="M690.712 830.15H597.767V973.506H690.712V830.15Z" stroke="black" stroke-width="2"/>
<path d="M512.174 829.625H425.006V973.506H512.174V829.625Z" stroke="black" stroke-width="2"/>
<path d="M425.006 829.625H326.285V973.506H425.006V829.625Z" stroke="black" stroke-width="2"/>
<path d="M326.285 829.625H243.317V973.506H326.285V829.625Z" stroke="black" stroke-width="2"/>
<path d="M243.317 829.625H144.071V973.506H243.317V829.625Z" stroke="black" stroke-width="2"/>
<path d="M144.071 829.625H10.1675V973.506H144.071V829.625Z" stroke="black" stroke-width="2"/>
<path d="M84.2082 782.89H10.1675V829.625H84.2082V782.89Z" stroke="black" stroke-width="2"/>
<path d="M104.688 736.155H10.1675V782.89H104.688V736.155Z" stroke="black" stroke-width="2"/>
<path d="M150.372 736.155H104.688V795.493H150.372V736.155Z" stroke="black" stroke-width="2"/>
<path d="M150.372 644.786H10.1675V736.155H150.372V644.786Z" stroke="black" stroke-width="2"/>
<path d="M150.372 552.366H10.1675V644.786H150.372V552.366Z" stroke="black" stroke-width="2"/>
<path d="M150.372 464.147H10.1675V552.366H150.372V464.147Z" stroke="black" stroke-width="2"/>
<path d="M150.372 372.253H10.1675V464.147H150.372V372.253Z" stroke="black" stroke-width="2"/>
<path d="M150.372 281.934H10.1675V372.253H150.372V281.934Z" stroke="black" stroke-width="2"/>
<path d="M124.642 156.17H10.1675V191.615H124.642V156.17Z" stroke="black" stroke-width="2"/>
<path d="M150.372 281.934V212.619H124.642V191.615H10.1675V281.934H150.372Z" stroke="black" stroke-width="2"/>
<path d="M902.857 830.15V804.42H875.551L874.501 740.356H1013.13V830.15H902.857Z" stroke="black" stroke-width="2"/>
<path d="M295.828 244.126H204.459V376.979H295.828V244.126Z" stroke="black" stroke-width="2"/>
<path d="M459.663 244.126H295.828V334.97H459.663V244.126Z" stroke="black" stroke-width="2"/>
<path d="M423.43 244.126H373.02V294.536H423.43V244.126Z" stroke="black" stroke-width="2"/>
<path d="M327.86 334.97H295.828V376.979H327.86V334.97Z" stroke="black" stroke-width="2"/>
<path d="M360.942 334.97H327.86V369.627H360.942V334.97Z" stroke="black" stroke-width="2"/>
<path d="M390.348 334.97H360.942V369.627H390.348V334.97Z" stroke="black" stroke-width="2"/>
<path d="M513.224 334.97H459.663V375.404H513.224V334.97Z" stroke="black" stroke-width="2"/>
<path d="M513.224 298.737H459.663V334.97H513.224V298.737Z" stroke="black" stroke-width="2"/>
<path d="M513.224 259.879H459.663V298.737H513.224V259.879Z" stroke="black" stroke-width="2"/>
<path d="M459.663 334.97H390.348V375.404H459.663V334.97Z" stroke="black" stroke-width="2"/>
<path d="M459.138 426.865H422.38V714.626H459.138V426.865Z" stroke="black" stroke-width="2"/>
<path d="M514.8 670.516H459.138V714.626H514.8V670.516Z" stroke="black" stroke-width="2"/>
<path d="M422.38 426.865H329.435V556.567H422.38V426.865Z" stroke="black" stroke-width="2"/>
<path d="M329.435 426.865H279.55V510.882H329.435V426.865Z" stroke="black" stroke-width="2"/>
<path d="M329.435 510.882H279.55V556.567H329.435V510.882Z" stroke="black" stroke-width="2"/>
<path d="M263.796 469.924H213.386V510.883H263.796V469.924Z" stroke="black" stroke-width="2"/>
<path d="M263.796 426.865H213.386V469.924H263.796V426.865Z" stroke="black" stroke-width="2"/>
<path d="M279.55 556.83V528.211H264.321L263.796 510.882H213.386V556.83H279.55Z" stroke="black" stroke-width="2"/>
<path d="M331.011 675.242H277.974V771.863H331.011V675.242Z" stroke="black" stroke-width="2"/>
<path d="M277.974 675.242H213.386V771.863H277.974V675.242Z" stroke="black" stroke-width="2"/>
<path d="M213.386 556.83V641.635H291.102V631.133H329.698V556.567L213.386 556.83Z" stroke="black" stroke-width="2"/>
<path d="M329.698 556.567V658.964H355.691V674.455H422.38V556.567H329.698Z" stroke="black" stroke-width="2"/>
<path d="M291.102 641.635H213.386V675.242H291.102V641.635Z" stroke="black" stroke-width="2"/>
<path d="M392.269 736.021H331.011V771.863H392.269V736.021Z" stroke="black" stroke-width="2"/>
<path d="M422.38 714.626V753.102H478.784V770.925H515.173L514.8 714.626H422.38Z" stroke="black" stroke-width="2"/>
<path d="M392.269 736.022V674.455H355.691V699.262H331.011V736.022H392.269Z" stroke="black" stroke-width="2"/>
<path d="M690.802 244.779H595.747V376.222H690.802V244.779Z" stroke="black" stroke-width="2"/>
<path d="M630.324 244.779H612.996V263.555H630.324V244.779Z" stroke="black" stroke-width="2"/>
<path d="M743.748 244.779H690.802V376.222H743.748V244.779Z" stroke="black" stroke-width="2"/>
<path d="M814.376 244.779H743.748V347.835H814.376V244.779Z" stroke="black" stroke-width="2"/>
<path d="M814.376 347.835H743.748V376.222H814.376V347.835Z" stroke="black" stroke-width="2"/>
<path d="M813.851 433.166H756.351V493.029H813.851V433.166Z" stroke="black" stroke-width="2"/>
<path d="M816.214 549.741H693.338V675.768H816.214V549.741Z" stroke="black" stroke-width="2"/>
<path d="M746.899 675.768H693.338V771.6H746.899V675.768Z" stroke="black" stroke-width="2"/>
<path d="M816.214 675.768H746.899V771.6H816.214V675.768Z" stroke="black" stroke-width="2"/>
<path d="M693.338 675.768H651.854V771.6H693.338V675.768Z" stroke="black" stroke-width="2"/>
<path d="M595.747 376.222V645.051" stroke="black" stroke-width="2"/>
<path d="M632.507 645.051H595.747V708.545H632.507V645.051Z" stroke="black" stroke-width="2"/>
<path d="M632.507 708.545H595.747V740.881H632.507V708.545Z" stroke="black" stroke-width="2"/>
<path d="M632.507 740.881H595.747V771.6H632.507V740.881Z" stroke="black" stroke-width="2"/>
<path d="M651.854 675.768H632.507" stroke="black" stroke-width="2"/>
<path d="M693.338 549.741H595.747" stroke="black" stroke-width="2"/>
<path d="M774.719 433.166V376.222" stroke="black" stroke-width="2"/>
<path d="M775.09 493.029V549.741" stroke="black" stroke-width="2"/>
<path d="M756.351 493.029L722.735 549.741" stroke="black" stroke-width="2"/>
<path d="M756.351 433.166L721.992 376.222" stroke="black" stroke-width="2"/>
<path d="M513.224 425.814V613.86" stroke="black" stroke-width="2"/>
</svg>
