<svg width="1024" height="1024" viewBox="0 0 1024 1024" fill="none" xmlns="http://www.w3.org/2000/svg">
<path d="M10.1676 973.506H1013.13V53.5104H10.1676V973.506Z" stroke="black" stroke-width="2"/>
<path d="M953.283 697.974H1013.13V649.354H953.283V697.974Z" stroke="black" stroke-width="2"/>
<path d="M953.283 649.354H1013.13V604.243H953.283V649.354Z" stroke="black" stroke-width="2"/>
<path d="M929.644 604.243H1013.13V489.46H929.644V604.243Z" stroke="black" stroke-width="2"/>
<path d="M871.802 565.648H929.644V510.01H871.802V565.648Z" stroke="black" stroke-width="2"/>
<path d="M871.802 604.243H929.644V565.648H871.802V604.243Z" stroke="black" stroke-width="2"/>
<path d="M872.305 489.46H1013.13V377.684H872.305V489.46Z" stroke="black" stroke-width="2"/>
<path d="M872.305 377.684H1013.13V285.958H872.305V377.684Z" stroke="black" stroke-width="2"/>
<path d="M872.305 285.958H1013.13V194.231H872.305V285.958Z" stroke="black" stroke-width="2"/>
<path d="M872.305 194.231H1013.13V53.5104H872.305V194.231Z" stroke="black" stroke-width="2"/>
<path d="M689.727 194.231H785.291V53.5104H689.727V194.231Z" stroke="black" stroke-width="2"/>
<path d="M600.199 194.231H689.727V53.5104H600.199V194.231Z" stroke="black" stroke-width="2"/>
<path d="M509.161 194.231H600.199V53.5104H509.161V194.231Z" stroke="black" stroke-width="2"/>
<path d="M420.135 201.75H509.161V53.5104H420.135V201.75Z" stroke="black" stroke-width="2"/>
<path d="M445.284 201.75H509.161V149.12H445.284V201.75Z" stroke="black" stroke-width="2"/>
<path d="M240.575 201.75H420.135V53.5104H240.575V201.75Z" stroke="black" stroke-width="2"/>
<path d="M174.686 194.231H240.575V159.646H174.686V194.231Z" stroke="black" stroke-width="2"/>
<path d="M10.1676 286.96H150.041V53.5104H10.1676V286.96Z" stroke="black" stroke-width="2"/>
<path d="M10.1676 379.689H150.041V286.96H10.1676V379.689Z" stroke="black" stroke-width="2"/>
<path d="M10.1676 537.077H70.5715V490.963H10.1676V537.077Z" stroke="black" stroke-width="2"/>
<path d="M10.1676 625.796H70.5715V537.077H10.1676V625.796Z" stroke="black" stroke-width="2"/>
<path d="M10.1676 672.411H70.5715V625.796H10.1676V672.411Z" stroke="black" stroke-width="2"/>
<path d="M10.1676 717.021H70.5715V672.411H10.1676V717.021Z" stroke="black" stroke-width="2"/>
<path d="M10.1676 763.636H70.5715V717.021H10.1676V763.636Z" stroke="black" stroke-width="2"/>
<path d="M10.1676 807.244H65.0388V763.636H10.1676V807.244Z" stroke="black" stroke-width="2"/>
<path d="M10.1676 852.355H65.0388V807.244H10.1676V852.355Z" stroke="black" stroke-width="2"/>
<path d="M10.1676 898.469H65.0388V852.355H10.1676V898.469Z" stroke="black" stroke-width="2"/>
<path d="M57.9972 973.506H104.27V912.503H57.9972V973.506Z" stroke="black" stroke-width="2"/>
<path d="M104.271 973.506H151.55V912.503H104.271V973.506Z" stroke="black" stroke-width="2"/>
<path d="M151.55 973.506H195.811V912.503H151.55V973.506Z" stroke="black" stroke-width="2"/>
<path d="M195.811 973.506H240.072V912.503H195.811V973.506Z" stroke="black" stroke-width="2"/>
<path d="M240.072 973.506H284.334V912.503H240.072V973.506Z" stroke="black" stroke-width="2"/>
<path d="M284.334 973.506H329.601V912.503H284.334V973.506Z" stroke="black" stroke-width="2"/>
<path d="M93.7081 887.442H203.858V831.804H93.7081V887.442Z" stroke="black" stroke-width="2"/>
<path d="M93.7079 831.804H203.858V738.073H93.7079V831.804Z" stroke="black" stroke-width="2"/>
<path d="M93.708 738.073H149.035V716.52H93.708V738.073Z" stroke="black" stroke-width="2"/>
<path d="M93.7079 716.52H149.035V673.414H93.7079V716.52Z" stroke="black" stroke-width="2"/>
<path d="M203.858 826.291H388.448V775.666H203.858V826.291Z" stroke="black" stroke-width="2"/>
<path d="M203.858 775.666H274.777V679.429H203.858V775.666Z" stroke="black" stroke-width="2"/>
<path d="M274.777 775.666H328.092V679.429H274.777V775.666Z" stroke="black" stroke-width="2"/>
<path d="M328.092 775.666H388.448V739.076H328.092V775.666Z" stroke="black" stroke-width="2"/>
<path d="M328.092 739.076H388.448V679.429H328.092V739.076Z" stroke="black" stroke-width="2"/>
<path d="M328.092 701.984H354.246V679.428H328.092V701.984Z" stroke="black" stroke-width="2"/>
<path d="M203.858 887.442H242.587V826.291H203.858V887.442Z" stroke="black" stroke-width="2"/>
<path d="M242.587 887.442H284.334V826.291H242.587V887.442Z" stroke="black" stroke-width="2"/>
<path d="M372.353 887.442H284.334V826.291H388.448V856.866L372.353 887.442Z" stroke="black" stroke-width="2"/>
<path d="M372.842 973.504V927.544H362.791V912.503H329.586V973.504H372.842Z" stroke="black" stroke-width="2"/>
<path d="M1013.13 973.504V783.677H834.596V855.377L817.978 870.915V973.504H1013.13Z" stroke="black" stroke-width="2"/>
<path d="M872.808 866.891H843.643L834.093 855.847L834.596 804.738H872.808V866.891Z" stroke="black" stroke-width="2"/>
<path d="M728.073 925.193L700.125 937.557L659.602 937.391L644.645 905.26L706.576 877.524L728.073 925.193Z" stroke="black" stroke-width="2"/>
<path d="M706.576 877.524L595.042 927.474L595.017 885.773L606.522 885.86L692.97 847.352L706.576 877.524Z" stroke="black" stroke-width="2"/>
<path d="M687.212 973.506V937.504L659.602 937.391L644.645 905.26L595.042 927.474V973.506H687.212Z" stroke="black" stroke-width="2"/>
<path d="M595.017 885.773H498.599L485.018 915.01V973.506H595.042L595.017 885.773Z" stroke="black" stroke-width="2"/>
<path d="M362.791 912.503H386.939L416.112 848.345L498.599 885.773L485.018 915.01V973.506L372.842 973.504V927.544H362.791V912.503Z" stroke="black" stroke-width="2"/>
<path d="M817.978 870.915L800.37 853.368H695.683L728.073 925.193L700.125 937.557L687.212 937.504V973.506L817.978 973.504V870.915Z" stroke="black" stroke-width="2"/>
<path d="M692.97 847.352L667.093 796.217L615.791 735.567H491.557L439.751 795.214L416.112 848.345L498.599 885.773L595.017 885.775L606.522 885.86L692.97 847.352Z" stroke="black" stroke-width="2"/>
<path d="M603.719 735.567V687.448C571.026 674.917 534.357 677.496 503.628 687.448V735.567H603.719Z" stroke="black" stroke-width="2"/>
<path d="M450.314 735.567H503.628V690.456H450.314V735.567Z" stroke="black" stroke-width="2"/>
<path d="M478.456 750.651L462.888 735.567H421.644V752.609L453.565 779.309L478.456 750.651Z" stroke="black" stroke-width="2"/>
<path d="M421.644 752.609H416.187V808.399H433.885L439.751 795.214L453.565 779.309L421.644 752.609Z" stroke="black" stroke-width="2"/>
<path d="M416.187 808.399V848.175L433.885 808.399H416.187Z" stroke="black" stroke-width="2"/>
<path d="M615.791 735.567H644.711L627.974 749.969L615.791 735.567Z" stroke="black" stroke-width="2"/>
<path d="M711.202 853.368V870.601L704.9 873.807L695.683 853.368H711.202Z" stroke="black" stroke-width="2"/>
<path d="M813.63 827.892V775.082H763.483V833.917H807.94L813.63 827.892Z" stroke="black" stroke-width="2"/>
<path d="M718.67 833.917H763.483V775.082H718.67V833.917Z" stroke="black" stroke-width="2"/>
<path d="M689.151 775.083H741.432V679.387H689.151V775.083Z" stroke="black" stroke-width="2"/>
<path d="M741.432 775.083H813.63V679.387H741.432V775.083Z" stroke="black" stroke-width="2"/>
<path d="M718.67 833.917V775.082H689.151L718.67 833.917Z" stroke="black" stroke-width="2"/>
<path d="M932.062 693.555V627.282H953.286V604.239H834.253V693.555H932.062Z" stroke="black" stroke-width="2"/>
<path d="M834.596 783.677V710.931H851.329V693.555H932.062V627.282H953.283V697.974H1013.13L1013.13 783.677H834.596Z" stroke="black" stroke-width="2"/>
<path d="M785.291 194.231H844.927V163.694H872.305V53.5104H785.291V194.231Z" stroke="black" stroke-width="2"/>
<path d="M774.721 556.635V497.991H755.614V439.346H774.721V382.19H595.659V556.635H774.721Z" stroke="black" stroke-width="2"/>
<path d="M755.616 497.981H812.955V439.336H755.616V497.981Z" stroke="black" stroke-width="2"/>
<path d="M755.614 497.991L719.737 556.635" stroke="black" stroke-width="2"/>
<path d="M755.616 439.346L721.16 382.19" stroke="black" stroke-width="2"/>
<path d="M780.759 611.248V556.635H595.659V251.876H547.392V556.635V611.248H780.759Z" stroke="black" stroke-width="2"/>
<path d="M595.659 382.19H692.745V251.876H595.659V382.19Z" stroke="black" stroke-width="2"/>
<path d="M692.745 382.19H744.551V251.876H692.745V382.19Z" stroke="black" stroke-width="2"/>
<path d="M744.551 382.19H813.458V352.622H744.551V382.19Z" stroke="black" stroke-width="2"/>
<path d="M744.551 352.622H813.458V251.876H744.551V352.622Z" stroke="black" stroke-width="2"/>
<path d="M92.7208 652.096H149.625V625.868H92.7208V652.096Z" stroke="black" stroke-width="2"/>
<path d="M92.7208 625.868H149.625V580.502H92.7208V625.868Z" stroke="black" stroke-width="2"/>
<path d="M92.7208 580.501H149.625V536.552H92.7208V580.501Z" stroke="black" stroke-width="2"/>
<path d="M92.7208 536.552H149.625V490.951H92.7208V536.552Z" stroke="black" stroke-width="2"/>
<path d="M192.317 490.951V438.385H165.616V379.678H10.1736V490.951H165.616H192.317Z" stroke="black" stroke-width="2"/>
<path d="M203.862 738.058V698.176H186.249V679.414H149.03V738.058H203.862Z" stroke="black" stroke-width="2"/>
<path d="M149.625 652.096H306.468V560.654H149.625V652.096Z" stroke="black" stroke-width="2"/>
<path d="M149.625 560.654H238.539V508.907H149.625V560.654Z" stroke="black" stroke-width="2"/>
<path d="M149.625 508.907H192.317V490.951H149.625V508.907Z" stroke="black" stroke-width="2"/>
<path d="M192.317 508.907H238.539V466.376H192.317V508.907Z" stroke="black" stroke-width="2"/>
<path d="M192.317 466.376H245.652V422.781H192.317V466.376Z" stroke="black" stroke-width="2"/>
<path d="M306.468 652.096H417.621V560.654H306.468V652.096Z" stroke="black" stroke-width="2"/>
<path d="M417.621 652.096H466.912V606.248H417.621V652.096Z" stroke="black" stroke-width="2"/>
<path d="M417.621 606.248H466.912V560.654H417.621V606.248Z" stroke="black" stroke-width="2"/>
<path d="M417.621 560.654H456.349V509.008H417.621V560.654Z" stroke="black" stroke-width="2"/>
<path d="M417.621 509.008H456.349V422.795H417.621V509.008Z" stroke="black" stroke-width="2"/>
<path d="M332.619 560.654H417.621V422.795H332.619V560.654Z" stroke="black" stroke-width="2"/>
<path d="M332.619 422.795H245.652V466.376H238.539V560.654H332.619V422.795Z" stroke="black" stroke-width="2"/>
<path d="M201.344 382.195H294.393V246.36H201.344V382.195Z" stroke="black" stroke-width="2"/>
<path d="M240.575 382.195H294.393V286.459H240.575V382.195Z" stroke="black" stroke-width="2"/>
<path d="M294.393 382.195H329.098V344.101H294.393V382.195Z" stroke="black" stroke-width="2"/>
<path d="M329.098 372.763H389.454V344.101H329.098V372.763Z" stroke="black" stroke-width="2"/>
<path d="M389.454 382.195H457.858V344.101H389.454V382.195Z" stroke="black" stroke-width="2"/>
<path d="M457.858 382.195H512.179V274.931H457.858V382.195Z" stroke="black" stroke-width="2"/>
<path d="M457.861 330.555V274.918H444.293H424.158V246.356H294.39V330.555H457.861Z" stroke="black" stroke-width="2"/>
<path d="M369.838 298.489H424.159V246.36H369.838V298.489Z" stroke="black" stroke-width="2"/>
<path d="M444.293 274.931H512.179V246.356H444.293V274.931Z" stroke="black" stroke-width="2"/>
<path d="M240.575 53.5105H150.041V159.646H240.575V53.5105Z" stroke="black" stroke-width="2"/>
<path d="M10.1562 898.469V973.5H58V912.5H65.0312V898.469H58H10.1562Z" stroke="black" stroke-width="2"/>
<path d="M462.888 735.567L478.456 750.651L491.557 735.567H462.888Z" stroke="black" stroke-width="2"/>
</svg>
