<svg width="1024" height="1024" viewBox="0 0 1024 1024" fill="none" xmlns="http://www.w3.org/2000/svg">
<path d="M358.571 146.857L460.714 881.143H476.429L508.571 992.571H735V1001.14H781.429V1010.43H980.357V656.304H851.559V112.571H815V129.714H630.714V113.286H605.714V97.5714H397.143V146.857H358.571Z" stroke="black" stroke-width="2"/>
<path d="M517.857 97.5714V169H547.143V207.571H619.286V113.286H605.714V97.5714H517.857Z" stroke="black" stroke-width="2"/>
<path d="M619.286 153.286H654.286L671.954 183.888V236.857H851.559V112.571H815V129.714H630.714V113.286H619.286V153.286Z" stroke="black" stroke-width="2"/>
<path d="M549.286 241.143H612.143L811.472 294.553V474L633.346 521.729H549.286V241.143Z" stroke="black" stroke-width="2"/>
<path d="M760 236.857V280.761L811.472 294.553V474L689.435 506.7V540.429H735V581.857H760.714V518.286H851.559V236.857H760Z" stroke="black" stroke-width="2"/>
<path d="M689.435 540.429H615V521.729H633.346L689.435 506.7V540.429Z" stroke="black" stroke-width="2"/>
<path d="M515.714 505.429V432.571" stroke="black" stroke-width="2"/>
<path d="M515.714 442.929H549.286" stroke="black" stroke-width="2"/>
<path d="M515.714 402.214V237.929" stroke="black" stroke-width="2"/>
<path d="M980.357 656.304H851.559V832.571H980.357V656.304Z" stroke="black" stroke-width="2"/>
<path d="M851.558 664.714H735V764.714H851.558V664.714Z" stroke="black" stroke-width="2"/>
<path d="M800.714 566.143H760.714V624.357H800.714V566.143Z" stroke="black" stroke-width="2"/>
<path d="M851.559 624.357H760.714V664.714H851.559V624.357Z" stroke="black" stroke-width="2"/>
<path d="M851.559 518.286H800.714V624.357H851.559V518.286Z" stroke="black" stroke-width="2"/>
<path d="M800.714 518.286H760.714V566.143H800.714V518.286Z" stroke="black" stroke-width="2"/>
<path d="M735 540.429H694.985V581.857H735V540.429Z" stroke="black" stroke-width="2"/>
<path d="M694.985 540.429H657.104V581.857H694.985V540.429Z" stroke="black" stroke-width="2"/>
<path d="M657.104 540.429H615V581.857H657.104V540.429Z" stroke="black" stroke-width="2"/>
<path d="M656.786 625.428H615V664.714H656.786V625.428Z" stroke="black" stroke-width="2"/>
<path d="M695.714 625.428H656.786V664.714H695.714V625.428Z" stroke="black" stroke-width="2"/>
<path d="M735 625.428H695.714V664.714H735V625.428Z" stroke="black" stroke-width="2"/>
<path d="M735 664.714H615V724.995H735V664.714Z" stroke="black" stroke-width="2"/>
<path d="M683.125 725V773.5H675.781V810.094H707.625V832.568H728.562V810.094H735V773.5V725H683.125Z" stroke="black" stroke-width="2"/>
<path d="M743.472 764.714H735V810.094H743.472V764.714Z" stroke="black" stroke-width="2"/>
<path d="M770.746 764.714H743.472V810.094H770.746V764.714Z" stroke="black" stroke-width="2"/>
<path d="M770.75 764.719V810.094V832.568H795V810.094H851.562V764.719H770.75Z" stroke="black" stroke-width="2"/>
<path d="M851.559 810.094H825.547V832.571H851.559V810.094Z" stroke="black" stroke-width="2"/>
<path d="M825.547 810.094H795V832.571H825.547V810.094Z" stroke="black" stroke-width="2"/>
<path d="M906.438 832.562V861.5H859.281H763.562V927.938H833.219V947.219H859.281V927.938V907.219H929.656V1010.44H980.344V868.656V832.562H906.438Z" stroke="black" stroke-width="2"/>
<path d="M859.281 907.219V947.219H833.219V927.938H763.562V909H735V1001.16H763.562H781.438V1010.44H859.281H929.656V907.219H859.281Z" stroke="black" stroke-width="2"/>
<path d="M763.562 874.714H735V909H763.562V874.714Z" stroke="black" stroke-width="2"/>
<path d="M651.844 792.031V810.094V832.562H707.625V810.094H669.094V792.031H651.844Z" stroke="black" stroke-width="2"/>
<path d="M598.25 774.75V849.219H651.844V792.031H669.094V774.75H651.844H598.25Z" stroke="black" stroke-width="2"/>
<path d="M669.094 724.995H615V774.75H669.094V724.995Z" stroke="black" stroke-width="2"/>
<path d="M637.659 754.794H615V774.75H637.659V754.794Z" stroke="black" stroke-width="2"/>
<path d="M425.231 626.061H511.071V794.357" stroke="black" stroke-width="2"/>
<path d="M469.286 626.061V794.357" stroke="black" stroke-width="2"/>
<path d="M441.473 742.823H469.286" stroke="black" stroke-width="2"/>
<path d="M476.428 881.143H515.714L507.5 854H481.428" stroke="black" stroke-width="2"/>
<path d="M515.714 881.143L546.429 992.571" stroke="black" stroke-width="2"/>
<path d="M408.397 505.046H449.286V327.214H417.143L431.786 425.071" stroke="black" stroke-width="2"/>
<path d="M422.143 327.214L404.286 197.214" stroke="black" stroke-width="2"/>
<path d="M430.357 97.5714H397.143V146.143H430.357V97.5714Z" stroke="black" stroke-width="2"/>
<path d="M851.559 161.5H723.571V236.857H851.559V161.5Z" stroke="black" stroke-width="2"/>
<path d="M682.5 194H711.071C711.071 194 715.357 172.929 701.786 157.929" stroke="black" stroke-width="2"/>
<path d="M656.786 145.786C684.643 129.714 701.429 142.214 712.5 155.429" stroke="black" stroke-width="2"/>
<path d="M547.143 169V129.51" stroke="black" stroke-width="2"/>
</svg>
