<svg width="1024" height="1024" viewBox="0 0 1024 1024" fill="none" xmlns="http://www.w3.org/2000/svg">
<path d="M33.5714 450.428L393.571 420.428L346.429 95.4285H405V8.28564H431.429V95.4285H862.143V651.254H983.889V1002.79H467.701L404.061 515.893L37.3756 547.208L33.5714 450.428Z" stroke="black" stroke-width="2"/>
<path d="M362.562 206.652H548.513V95.4287H346.428L362.562 206.652Z" stroke="black" stroke-width="2"/>
<path d="M621.749 95.4287H548.513V206.652H621.749V95.4287Z" stroke="black" stroke-width="2"/>
<path d="M661.65 95.4287H621.749V161.33H661.65V95.4287Z" stroke="black" stroke-width="2"/>
<path d="M698.52 95.4287H661.65V161.33H698.52V95.4287Z" stroke="black" stroke-width="2"/>
<path d="M737.916 95.4287H698.521V161.33H737.916V95.4287Z" stroke="black" stroke-width="2"/>
<path d="M862.143 95.4287H737.917V236.081H862.143V95.4287Z" stroke="black" stroke-width="2"/>
<path d="M728.312 236.094V249.719H703.062V515.375H862.156V236.094H728.312Z" stroke="black" stroke-width="2"/>
<path d="M677.812 236.094V249.719H703.062V515.375H543.969V236.094H677.812Z" stroke="black" stroke-width="2"/>
<path d="M739.432 515.375H613.163V539.127H739.432V515.375Z" stroke="black" stroke-width="2"/>
<path d="M655.589 539.127H613.163V580.543H655.589V539.127Z" stroke="black" stroke-width="2"/>
<path d="M695.995 539.127H655.589V580.543H695.995V539.127Z" stroke="black" stroke-width="2"/>
<path d="M739.432 539.127H695.995V580.543H739.432V539.127Z" stroke="black" stroke-width="2"/>
<path d="M787.919 515.375H739.432V566.906H787.919V515.375Z" stroke="black" stroke-width="2"/>
<path d="M822.143 515.375H787.919V580.786H822.143V515.375Z" stroke="black" stroke-width="2"/>
<path d="M862.143 619.714H763.929V661.143H862.143V619.714Z" stroke="black" stroke-width="2"/>
<path d="M797.857 661.143H739.432V694.357H797.857V661.143Z" stroke="black" stroke-width="2"/>
<path d="M739.432 621.143H696.786V657.214H739.432V621.143Z" stroke="black" stroke-width="2"/>
<path d="M696.786 621.143H655.714V657.214H696.786V621.143Z" stroke="black" stroke-width="2"/>
<path d="M655.714 621.143H613.163V657.214H655.714V621.143Z" stroke="black" stroke-width="2"/>
<path d="M739.432 657.214H613.163V725.429H739.432V657.214Z" stroke="black" stroke-width="2"/>
<path d="M702.844 800.438V762.562H676.781V800.438H702.844Z" stroke="black" stroke-width="2"/>
<path d="M676.781 725.438V762.562H702.844V800.438V823.281H739.438V725.438H676.781Z" stroke="black" stroke-width="2"/>
<path d="M613.156 725.438V800.438V822.938H648.562V800.438H676.781V725.438H613.156Z" stroke="black" stroke-width="2"/>
<path d="M797.858 694.357H739.438V787.625H797.858V694.357Z" stroke="black" stroke-width="2"/>
<path d="M862.156 651.25V661.156H797.844V787.625H862.156V769.688H983.875V651.25H862.156Z" stroke="black" stroke-width="2"/>
<path d="M862.143 787.624H769.736V824.495H862.143V787.624Z" stroke="black" stroke-width="2"/>
<path d="M983.889 769.688H906.612V893.185H983.889V769.688Z" stroke="black" stroke-width="2"/>
<path d="M983.889 893.186H887.924V1002.79H983.889V893.186Z" stroke="black" stroke-width="2"/>
<path d="M887.924 919.449H733.876V1002.79H887.924V919.449Z" stroke="black" stroke-width="2"/>
<path d="M865.701 855.81H733.876V919.449H865.701V855.81Z" stroke="black" stroke-width="2"/>
<path d="M733.876 855.81H620.739V1002.79H733.876V855.81Z" stroke="black" stroke-width="2"/>
<path d="M456.878 919.982H620.739V1002.79H467.701L456.878 919.982Z" stroke="black" stroke-width="2"/>
<path d="M436.976 767.717H570.231V919.982L456.831 919.625L436.976 767.717Z" stroke="black" stroke-width="2"/>
<path d="M426.429 687.029H570.231V767.717H436.976L426.429 687.029Z" stroke="black" stroke-width="2"/>
<path d="M417.844 621.313L426.429 687.029L570.219 687.031V638.125H507.594V621.312L417.844 621.313Z" stroke="black" stroke-width="2"/>
<path d="M507.594 621.313V284.568" stroke="black" stroke-width="2"/>
<path d="M460.63 621.313V513.873" stroke="black" stroke-width="2"/>
<path d="M379.881 326.048L414.162 320.934L429.315 421.949" stroke="black" stroke-width="2"/>
</svg>
