<svg width="1024" height="1024" viewBox="0 0 1024 1024" fill="none" xmlns="http://www.w3.org/2000/svg">
<path d="M241.428 38.2852V138.285H205.715V184H241.428V334.715H543.463V161.961H642.457V167.391H690.945V194.16H707.611V334.824H762.16V194.16V164.865H794.285H827.82V122.572H830.346V49H794.285V38.2852H241.428Z" stroke="black" stroke-width="2"/>
<path d="M291.934 161.961H241.428V220.929H291.934V161.961Z" stroke="black" stroke-width="2"/>
<path d="M291.934 220.929H241.428V281.033H291.934V220.929Z" stroke="black" stroke-width="2"/>
<path d="M241.428 281.033V334.715H344.967V287.852H310.117V281.033H241.428Z" stroke="black" stroke-width="2"/>
<path d="M344.967 247.445H310.117V287.852H344.967V247.445Z" stroke="black" stroke-width="2"/>
<path d="M344.967 206.534H310.117V247.445H344.967V206.534Z" stroke="black" stroke-width="2"/>
<path d="M344.967 161.961H310.117V206.534H344.967V161.961Z" stroke="black" stroke-width="2"/>
<path d="M344.967 194.664V334.715H495.984V194.664H468.035V199.535H429.465V194.664H410.893V199.535H390V194.664H344.967Z" stroke="black" stroke-width="2"/>
<path d="M429.464 180.429H410.893V194.665H429.464V180.429Z" stroke="black" stroke-width="2"/>
<path d="M410.893 180.429H390V199.536H410.893V180.429Z" stroke="black" stroke-width="2"/>
<path d="M468.036 180.429H429.464V199.536H468.036V180.429Z" stroke="black" stroke-width="2"/>
<path d="M707.611 167.391H690.945V194.16H707.611V167.391Z" stroke="black" stroke-width="2"/>
<path d="M745.997 174.176H707.611V201.231H745.997V174.176Z" stroke="black" stroke-width="2"/>
<path d="M745.997 201.231H707.611V260.83H745.997V201.231Z" stroke="black" stroke-width="2"/>
<path d="M745.997 260.83H707.611V334.824H745.997V260.83Z" stroke="black" stroke-width="2"/>
<path d="M794.285 49V122.572V138.854H827.82V122.572H830.346V49H827.82H794.285Z" stroke="black" stroke-width="2"/>
<path d="M794.285 95.9224H759.887V134.498H794.285V95.9224Z" stroke="black" stroke-width="2"/>
<path d="M759.887 103.246H683.116V134.498H759.887V103.246Z" stroke="black" stroke-width="2"/>
<path d="M742.967 38.2852V103.246H759.887V95.9219H794.285V38.2852H759.887H742.967Z" stroke="black" stroke-width="2"/>
<path d="M742.967 38.2852H683.116V81.2751H742.967V38.2852Z" stroke="black" stroke-width="2"/>
<path d="M655.589 97.4376H615.183V134.498H655.589V97.4376Z" stroke="black" stroke-width="2"/>
<path d="M615.183 97.4376H542.199V134.498H615.183V97.4376Z" stroke="black" stroke-width="2"/>
<path d="M593.97 38.2852H542.199V97.4376H593.97V38.2852Z" stroke="black" stroke-width="2"/>
<path d="M593.969 38.2852V97.4375H655.59V103.246V134.498H683.115V103.246H742.967V81.2754H683.115V38.2852H593.969Z" stroke="black" stroke-width="2"/>
<path d="M542.199 80.0125H511.137V134.498H542.199V80.0125Z" stroke="black" stroke-width="2"/>
<path d="M492.955 38.2852V80.0117V100.973H511.137V80.0117H542.199V38.2852H492.955Z" stroke="black" stroke-width="2"/>
<path d="M492.955 38.2852V80.0117V100.973H474.773V80.0117H443.711V38.2852H492.955Z" stroke="black" stroke-width="2"/>
<path d="M511.137 100.973H474.773V134.498H511.137V100.973Z" stroke="black" stroke-width="2"/>
<path d="M474.773 80.0117H443.711V134.498H474.773V80.0117Z" stroke="black" stroke-width="2"/>
<path d="M443.711 80.0117H418.203V107.792H443.711V80.0117Z" stroke="black" stroke-width="2"/>
<path d="M443.711 107.792H418.203V134.498H443.711V107.792Z" stroke="black" stroke-width="2"/>
<path d="M443.711 38.2852H393.454V80.0117H443.711V38.2852Z" stroke="black" stroke-width="2"/>
<path d="M418.203 80.0117H393.454V134.498H418.203V80.0117Z" stroke="black" stroke-width="2"/>
<path d="M393.454 96.1749H343.452V134.498H393.454V96.1749Z" stroke="black" stroke-width="2"/>
<path d="M393.454 38.2852H343.452V96.1749H393.454V38.2852Z" stroke="black" stroke-width="2"/>
<path d="M291.682 38.2852V100.721H309.611V78.498H343.451V38.2852H291.682Z" stroke="black" stroke-width="2"/>
<path d="M343.452 78.498H309.611V134.498H343.452V78.498Z" stroke="black" stroke-width="2"/>
<path d="M241.428 38.2852V78.75H274.762V100.721H291.682V38.2852H241.428Z" stroke="black" stroke-width="2"/>
<path d="M309.611 100.721H274.762V134.498H309.611V100.721Z" stroke="black" stroke-width="2"/>
<path d="M274.762 78.75H241.428V134.498H274.762V78.75Z" stroke="black" stroke-width="2"/>
</svg>
