<svg width="1024" height="1024" viewBox="0 0 1024 1024" fill="none" xmlns="http://www.w3.org/2000/svg">
<path d="M208.092 17.8887V119.715H188.572V171.143H205.715V332.572H187.143V381.143H200V456.857H154.285V512.572H102.857V568.285H54.2852V629.715H31.4277V856.857H60V924H30V965.428H355.715V924V856.857V805.807H392.949V826.01H830.346H851.785V566.143H935.715H948.215H975.715V525.428H948.215V350.785H935.715V345.428H863.572V91.8574H847.143V122.572H830.346V17.8887H355.715H208.092Z" stroke="black" stroke-width="2"/>
<path d="M98.5714 924H30V965.428H98.5714V924Z" stroke="black" stroke-width="2"/>
<path d="M355.715 902.571H298.572V965.428H355.715V902.571Z" stroke="black" stroke-width="2"/>
<path d="M355.715 844H298.572V902.571H355.715V844Z" stroke="black" stroke-width="2"/>
<path d="M644.286 733.286H595.714V826.01H644.286V733.286Z" stroke="black" stroke-width="2"/>
<path d="M644.286 664H595.714V733.286H644.286V664Z" stroke="black" stroke-width="2"/>
<path d="M696.429 775.429H644.286V826.01H696.429V775.429Z" stroke="black" stroke-width="2"/>
<path d="M644.285 664V775.428H696.428V826.01H752.857V734H727.857V664H644.285Z" stroke="black" stroke-width="2"/>
<path d="M727.857 566.143V693.176V734H761.654V693.176H778.322V566.143H761.654H727.857Z" stroke="black" stroke-width="2"/>
<path d="M851.785 733.076H792.97V826.01H851.785V733.076Z" stroke="black" stroke-width="2"/>
<path d="M851.785 566.143H792.857V623.286H851.785V566.143Z" stroke="black" stroke-width="2"/>
<path d="M792.857 623.285V677.518H826.305V733.076H851.785V677.518V623.285H792.857Z" stroke="black" stroke-width="2"/>
<path d="M826.305 677.518H792.857V705.297H826.305V677.518Z" stroke="black" stroke-width="2"/>
<path d="M792.97 752.774H752.857V826.01H792.97V752.774Z" stroke="black" stroke-width="2"/>
<path d="M792.857 413.363H742.967V463.87H792.857V413.363Z" stroke="black" stroke-width="2"/>
<path d="M792.857 366.391H742.967V413.363H792.857V366.391Z" stroke="black" stroke-width="2"/>
<path d="M792.857 334.823H758.372V366.391H792.857V334.823Z" stroke="black" stroke-width="2"/>
<path d="M792.857 266.386H707.612V334.823H792.857V266.386Z" stroke="black" stroke-width="2"/>
<path d="M792.857 200.726H707.612V266.386H792.857V200.726Z" stroke="black" stroke-width="2"/>
<path d="M847.142 334.571H823.779V381.038H847.142V334.571Z" stroke="black" stroke-width="2"/>
<path d="M847.142 183.553H823.779V317.398H847.142V183.553Z" stroke="black" stroke-width="2"/>
<path d="M847.142 169.916H823.779V183.553H847.142V169.916Z" stroke="black" stroke-width="2"/>
<path d="M847.142 122.572H823.779V169.916H847.142V122.572Z" stroke="black" stroke-width="2"/>
<path d="M847.142 317.398H823.779V334.571H847.142V317.398Z" stroke="black" stroke-width="2"/>
<path d="M790.178 42.2148H725.29V137.086H790.178V42.2148Z" stroke="black" stroke-width="2"/>
<path d="M725.289 42.2148H574.777V137.086H725.289V42.2148Z" stroke="black" stroke-width="2"/>
<path d="M661.145 264.871V282.043H642.457V334.824H707.611V264.871H661.145Z" stroke="black" stroke-width="2"/>
<path d="M642.457 194.16V244.162H661.145V264.871H707.611V194.16H642.457Z" stroke="black" stroke-width="2"/>
<path d="M661.145 244.162H642.457V282.043H661.145V244.162Z" stroke="black" stroke-width="2"/>
<path d="M690.944 167.391H642.457V194.16H690.944V167.391Z" stroke="black" stroke-width="2"/>
<path d="M543.462 165.37H394.97V336.591H543.462V165.37Z" stroke="black" stroke-width="2"/>
<path d="M320.219 165.371V214.867H242.941V336.592H394.969V165.371H320.219Z" stroke="black" stroke-width="2"/>
<path d="M320.219 165.371H242.941V214.867H320.219V165.371Z" stroke="black" stroke-width="2"/>
<path d="M574.777 96.1749H541.947V137.086H574.777V96.1749Z" stroke="black" stroke-width="2"/>
<path d="M574.777 42.2148H526.29V96.1749H574.777V42.2148Z" stroke="black" stroke-width="2"/>
<path d="M526.289 42.2148H475.782V96.1749H526.289V42.2148Z" stroke="black" stroke-width="2"/>
<path d="M475.782 42.2148H425.274V96.1749H475.782V42.2148Z" stroke="black" stroke-width="2"/>
<path d="M425.274 42.2148H375.777V96.1749H425.274V42.2148Z" stroke="black" stroke-width="2"/>
<path d="M241.426 42.2148V136.076H375.777H393.959V96.1758H375.777V42.2148H241.426Z" stroke="black" stroke-width="2"/>
<path d="M541.947 96.1749H494.47V137.086H541.947V96.1749Z" stroke="black" stroke-width="2"/>
<path d="M208.092 119.715H188.572V171.143H208.092V119.715Z" stroke="black" stroke-width="2"/>
<path d="M590.714 176.5H543.462V327.929H590.714V176.5Z" stroke="black" stroke-width="2"/>
<path d="M295.714 364.714H242.941V413.286H295.714V364.714Z" stroke="black" stroke-width="2"/>
<path d="M295.714 413.286H242.941V461.143H295.714V413.286Z" stroke="black" stroke-width="2"/>
<path d="M495 364.714H295.714V461.143H495V364.714Z" stroke="black" stroke-width="2"/>
<path d="M200 386.857V456.857H154.285V512.572H200H242.941V386.857H200Z" stroke="black" stroke-width="2"/>
<path d="M242.941 512.572H215.357V544.714H242.941V512.572Z" stroke="black" stroke-width="2"/>
<path d="M242.941 544.714H215.357V568.285H242.941V544.714Z" stroke="black" stroke-width="2"/>
<path d="M154.285 512.572H102.857V568.285H154.285V512.572Z" stroke="black" stroke-width="2"/>
<path d="M154.285 512.572V568.285H194.643V629.715H242.941V568.285H215.357V512.572H154.285Z" stroke="black" stroke-width="2"/>
<path d="M127.5 568.285V608.285H102.857V629.715H194.643V568.285H127.5Z" stroke="black" stroke-width="2"/>
<path d="M127.5 568.285H102.857V608.285H127.5V568.285Z" stroke="black" stroke-width="2"/>
<path d="M54.2852 568.285V629.715H31.4277V696.143H91.4277V629.715H102.857V568.285H54.2852Z" stroke="black" stroke-width="2"/>
<path d="M91.4277 696.143H31.4277V730.786H91.4277V696.143Z" stroke="black" stroke-width="2"/>
<path d="M91.4277 730.786H31.4277V780.071H91.4277V730.786Z" stroke="black" stroke-width="2"/>
<path d="M91.4277 780.071H31.4277V829H91.4277V780.071Z" stroke="black" stroke-width="2"/>
<path d="M91.4277 829H31.4277V856.857H91.4277V829Z" stroke="black" stroke-width="2"/>
<path d="M690.944 167.391V137.086" stroke="black" stroke-width="2"/>
<path d="M508.928 165.37V137.086" stroke="black" stroke-width="2"/>
<path d="M274.286 165.371V136.076" stroke="black" stroke-width="2"/>
<path d="M241.426 136.076H208.092" stroke="black" stroke-width="2"/>
<path d="M242.941 187.571H205.715" stroke="black" stroke-width="2"/>
<path d="M187.143 332.572V381.143H200V386.857H205.715V381.143V332.572H187.143Z" stroke="black" stroke-width="2"/>
<path d="M242.941 364.714H205.715" stroke="black" stroke-width="2"/>
<path d="M823.779 169.916H739.937V200.726" stroke="black" stroke-width="2"/>
<path d="M792.857 463.87V566.143" stroke="black" stroke-width="2"/>
<path d="M762.143 463.87V566.143" stroke="black" stroke-width="2"/>
<path d="M778.322 566.143H792.857" stroke="black" stroke-width="2"/>
<path d="M520 491.143C530.714 530.429 550 558.286 572.857 574" stroke="black" stroke-width="2"/>
<path d="M600.714 589.714C642.5 606.857 685 598.286 717.857 574" stroke="black" stroke-width="2"/>
<path d="M478.928 501.5C485.714 532.929 501.428 559.357 501.428 559.357" stroke="black" stroke-width="2"/>
<path d="M507.5 569.357C528.214 600.071 548.571 614 548.571 614" stroke="black" stroke-width="2"/>
</svg>
