<svg width="1024" height="1024" viewBox="0 0 1024 1024" fill="none" xmlns="http://www.w3.org/2000/svg">
<path d="M208.092 17.8887V119.715H188.572V171.143H205.715V332.572H187.143V381.143H200V456.857H154.285V512.572H102.857V568.285H54.2852V629.715H31.4277V856.857H60V924H30V965.428H355.715V924V856.857V805.807H392.949V826.01H830.346H851.785V566.143H935.715H948.215H975.715V525.428H948.215V350.785H935.715V345.428H863.572V91.8574H847.143V122.572H830.346V17.8887H355.715H208.092Z" stroke="black" stroke-width="2"/>
<path d="M98.5714 924H30V965.428H98.5714V924Z" stroke="black" stroke-width="2"/>
<path d="M764.643 724.357V752.773H792.969V826.01H851.785V733.076H792.971V724.357H764.643Z" stroke="black" stroke-width="2"/>
<path d="M792.857 623.285V677.518H826.305V733.076H851.785V677.518V623.285H792.857Z" stroke="black" stroke-width="2"/>
<path d="M826.305 677.518H792.857V705.297H826.305V677.518Z" stroke="black" stroke-width="2"/>
<path d="M792.97 752.774H752.857V826.01H792.97V752.774Z" stroke="black" stroke-width="2"/>
<path d="M661.145 264.871V282.043H642.457V334.824H707.611V264.871H661.145Z" stroke="black" stroke-width="2"/>
<path d="M642.457 194.16V244.162H661.145V264.871H707.611V194.16H642.457Z" stroke="black" stroke-width="2"/>
<path d="M661.145 244.162H642.457V282.043H661.145V244.162Z" stroke="black" stroke-width="2"/>
<path d="M690.944 167.391H642.457V194.16H690.944V167.391Z" stroke="black" stroke-width="2"/>
<path d="M590.714 176.5H543.462V327.929H590.714V176.5Z" stroke="black" stroke-width="2"/>
<path d="M295.714 364.714H242.941V470.429H295.714V364.714Z" stroke="black" stroke-width="2"/>
<path d="M200 386.857V456.857H154.285V512.572H200H242.941V386.857H200Z" stroke="black" stroke-width="2"/>
<path d="M242.941 512.572H204.643V544.714H242.941V512.572Z" stroke="black" stroke-width="2"/>
<path d="M84.2849 821.143H31.4277V856.857H84.2849V821.143Z" stroke="black" stroke-width="2"/>
<path d="M187.143 332.572V381.143H200V386.857H205.715V381.143V332.572H187.143Z" stroke="black" stroke-width="2"/>
<path d="M242.941 364.714H205.715" stroke="black" stroke-width="2"/>
<path d="M792.857 463.87V566.143" stroke="black" stroke-width="2"/>
<path d="M543.462 327.929V334.714H241.429V311.857H205.715" stroke="black" stroke-width="2"/>
<path d="M543.462 176.5V161.961H642.457V167.391" stroke="black" stroke-width="2"/>
<path d="M717.967 360.834V395.055H727.311V463.871H792.857V360.834H727.311H717.967Z" stroke="black" stroke-width="2"/>
<path d="M682.105 360.834V395.055V396.189V450.99H727.311V395.055H717.967V360.834H682.105Z" stroke="black" stroke-width="2"/>
<path d="M682.106 360.834H645.993V409.07H682.106V360.834Z" stroke="black" stroke-width="2"/>
<path d="M682.106 409.07H645.993V458.315H682.106V409.07Z" stroke="black" stroke-width="2"/>
<path d="M695.237 458.315H645.993V507.054H695.237V458.315Z" stroke="black" stroke-width="2"/>
<path d="M695.238 450.99V463.871V496.953V507.055H645.992V590.785V607.412C645.992 640.147 672.345 666.5 705.08 666.5H719.285H733.77H792.857V607.412V590.785V566.143V507.055V463.871H727.311V450.99H695.238Z" stroke="black" stroke-width="2"/>
<path d="M792.857 615.429H771.786V666.5H792.857V615.429Z" stroke="black" stroke-width="2"/>
<path d="M826.305 705.297H792.971V733.076H826.305V705.297Z" stroke="black" stroke-width="2"/>
<path d="M707.611 334.824H775.292V360.834" stroke="black" stroke-width="2"/>
<path d="M762.16 164.865V334.824H827.82V314.367H852.568V183.049H827.82V164.865H762.16Z" stroke="black" stroke-width="2"/>
</svg>
